<svg xmlns="http://www.w3.org/2000/svg" width="81.63" height="79.617" viewBox="0 0 81.63 79.617">
  <path id="Path_3730" data-name="Path 3730" d="M40.815,0a40.819,40.819,0,0,0-12.9,79.545c2.037.378,2.7-.888,2.7-1.963v-7.6c-11.353,2.469-13.717-4.816-13.717-4.816C15.037,60.45,12.36,59.2,12.36,59.2c-3.7-2.534.282-2.48.282-2.48,4.1.286,6.255,4.207,6.255,4.207,3.639,6.238,9.547,4.435,11.877,3.391a8.659,8.659,0,0,1,2.592-5.456C24.3,57.821,14.772,54.321,14.772,38.686a15.8,15.8,0,0,1,4.2-10.955c-.422-1.031-1.82-5.183.4-10.8,0,0,3.428-1.1,11.227,4.184a38.686,38.686,0,0,1,20.438,0c7.792-5.279,11.214-4.184,11.214-4.184,2.221,5.622.823,9.775.4,10.8a15.755,15.755,0,0,1,4.2,10.955c0,15.676-9.547,19.129-18.635,20.139,1.463,1.265,2.8,3.748,2.8,7.558v11.2c0,1.085.653,2.36,2.724,1.959A40.823,40.823,0,0,0,40.815,0Z" fill="#81b63a"/>
</svg>
