<svg xmlns="http://www.w3.org/2000/svg" viewBox="0 0 146 142.4">
  <defs>
    <style>
      .a {
        fill: #fff;
        fill-rule: evenodd;
      }
    </style>
  </defs>
  <title>github</title>
  <path class="a" d="M73,0A73,73,0,0,0,49.9,142.3c3.7.6,5-1.6,5-3.6s-.1-6.3-.1-12.4c-20.3,4.4-24.6-9.8-24.6-9.8-3.3-8.4-8.1-10.6-8.1-10.6-6.6-4.6.5-4.5.5-4.5,7.3.5,11.2,7.5,11.2,7.5,6.5,11.2,17.1,8,21.2,6.1.7-4.7,2.6-7.9,4.7-9.7-16.2-1.9-33.3-8.2-33.3-36.1a28.5,28.5,0,0,1,7.5-19.6c-.7-1.9-3.2-9.3.8-19.3,0,0,6.1-2,20,7.5a68.2,68.2,0,0,1,36.6,0c13.9-9.5,20-7.5,20-7.5,4,10,1.5,17.4.8,19.3a28.5,28.5,0,0,1,7.5,19.6c0,28-17.1,34.2-33.4,36,2.6,2.3,5,6.7,5,13.5,0,9.8-.1,17.6-.1,20s1.3,4.3,5,3.5A73,73,0,0,0,73,0Z"/>
</svg>
