<svg xmlns="http://www.w3.org/2000/svg" width="71.608" height="66.065" viewBox="0 0 71.608 66.065">
  <g id="Group_38" data-name="Group 38" transform="translate(-153.586 -148)">
    <path id="Path_28" data-name="Path 28" d="M155,187.535,160.535,182l16.6,16.6-1.384,1.384" transform="translate(0 12.663)" fill="none" stroke="#000" stroke-linecap="round" stroke-linejoin="round" stroke-width="2"/>
    <path id="Path_29" data-name="Path 29" d="M201.338,183.066l10.439-5.564a4.321,4.321,0,0,1,5.225.89,4.208,4.208,0,0,1-.941,6.347l-20.222,12.705a11.068,11.068,0,0,1-5.889,1.7H174.34a4.726,4.726,0,0,0-3.34,1.384h0" transform="translate(6.14 10.744)" fill="none" stroke="#000" stroke-linecap="round" stroke-linejoin="round" stroke-width="2"/>
    <path id="Path_30" data-name="Path 30" d="M183.523,188.07h17.753a4.309,4.309,0,0,0,4.381-3.927,4.153,4.153,0,0,0-4.146-4.375H188.042a5.572,5.572,0,0,1-2.852-.793A16.659,16.659,0,0,0,176.6,177c-9.686,0-16.6,8.3-16.6,8.3" transform="translate(1.919 10.744)" fill="none" stroke="#000" stroke-linecap="round" stroke-linejoin="round" stroke-width="2"/>
    <path id="Path_31" data-name="Path 31" d="M165,183.593V154.535A5.535,5.535,0,0,1,170.535,149h44.279a5.535,5.535,0,0,1,5.535,5.535v27.674" transform="translate(3.837)" fill="none" stroke="#000" stroke-linecap="round" stroke-linejoin="round" stroke-width="2"/>
    <line id="Line_62" data-name="Line 62" x2="50" transform="translate(169 159.651)" fill="none" stroke="#000" stroke-linecap="round" stroke-linejoin="round" stroke-width="2"/>
    <line id="Line_63" data-name="Line 63" transform="translate(177 154.651)" fill="none" stroke="#000" stroke-linecap="round" stroke-linejoin="round" stroke-width="2"/>
    <line id="Line_64" data-name="Line 64" transform="translate(183 154.651)" fill="none" stroke="#000" stroke-linecap="round" stroke-linejoin="round" stroke-width="2"/>
    <path id="Path_32" data-name="Path 32" d="M186.932,178.169l-3.643,2.024a1.4,1.4,0,0,1-2.056-1.457l.733-4.522a1.553,1.553,0,0,0-.419-1.328l-3.147-3.238a1.408,1.408,0,0,1,.8-2.373l4.208-.646a1.55,1.55,0,0,0,1.169-.874l1.846-3.949a1.4,1.4,0,0,1,2.531,0l1.847,3.949a1.547,1.547,0,0,0,1.168.874l4.215.648a1.4,1.4,0,0,1,.794,2.368l-3.152,3.242a1.548,1.548,0,0,0-.418,1.328l.732,4.522a1.4,1.4,0,0,1-2.056,1.457l-3.643-2.024A1.547,1.547,0,0,0,186.932,178.169Z" transform="translate(8.826 4.605)" fill="none" stroke="#8cb44e" stroke-linejoin="round" stroke-width="2"/>
    <g id="Group_35" data-name="Group 35" transform="translate(177.14 175.291)">
      <line id="Line_65" data-name="Line 65" x2="3" transform="translate(35.86 0.36)" fill="none" stroke="#8cb44e" stroke-linecap="round" stroke-linejoin="round" stroke-width="2"/>
      <line id="Line_66" data-name="Line 66" x2="3" transform="translate(-0.14 0.36)" fill="none" stroke="#8cb44e" stroke-linecap="round" stroke-linejoin="round" stroke-width="2"/>
    </g>
    <g id="Group_36" data-name="Group 36" transform="translate(178.488 168.372)">
      <line id="Line_67" data-name="Line 67" y1="0.988" x2="2.575" transform="translate(33.472)" fill="none" stroke="#8cb44e" stroke-linecap="round" stroke-linejoin="round" stroke-width="2"/>
      <line id="Line_68" data-name="Line 68" y1="0.988" x2="2.575" transform="translate(0 12.849)" fill="none" stroke="#8cb44e" stroke-linecap="round" stroke-linejoin="round" stroke-width="2"/>
    </g>
    <g id="Group_37" data-name="Group 37" transform="translate(178.488 168.372)">
      <line id="Line_69" data-name="Line 69" x1="2.575" y1="0.988" fill="none" stroke="#8cb44e" stroke-linecap="round" stroke-linejoin="round" stroke-width="2"/>
      <line id="Line_70" data-name="Line 70" x1="2.575" y1="0.988" transform="translate(33.472 12.849)" fill="none" stroke="#8cb44e" stroke-linecap="round" stroke-linejoin="round" stroke-width="2"/>
    </g>
  </g>
</svg>
