<svg xmlns="http://www.w3.org/2000/svg" width="69.276" height="63.894" viewBox="0 0 69.276 63.894">
  <g id="Group_43" data-name="Group 43" transform="translate(-448 -148)">
    <circle id="Ellipse_3" data-name="Ellipse 3" cx="6.5" cy="6.5" r="6.5" transform="translate(476 175.894)" fill="none" stroke="#000" stroke-linejoin="round" stroke-width="2"/>
    <line id="Line_81" data-name="Line 81" x1="12.735" y2="12.735" transform="translate(487.395 165.146)" fill="none" stroke="#000" stroke-linecap="round" stroke-linejoin="round" stroke-width="2"/>
    <line id="Line_82" data-name="Line 82" x1="5" transform="translate(503 182.894)" fill="none" stroke="#8cb44e" stroke-linecap="round" stroke-linejoin="round" stroke-width="2"/>
    <line id="Line_83" data-name="Line 83" x1="5" transform="translate(457 182.894)" fill="none" stroke="#8cb44e" stroke-linecap="round" stroke-linejoin="round" stroke-width="2"/>
    <line id="Line_84" data-name="Line 84" x1="3.806" y1="3.806" transform="translate(496.909 196.909)" fill="none" stroke="#8cb44e" stroke-linecap="round" stroke-linejoin="round" stroke-width="2"/>
    <line id="Line_85" data-name="Line 85" x1="3.806" y1="3.806" transform="translate(464.561 164.561)" fill="none" stroke="#8cb44e" stroke-linecap="round" stroke-linejoin="round" stroke-width="2"/>
    <line id="Line_86" data-name="Line 86" y1="3.806" x2="3.806" transform="translate(464.561 196.909)" fill="none" stroke="#8cb44e" stroke-linecap="round" stroke-linejoin="round" stroke-width="2"/>
    <line id="Line_87" data-name="Line 87" y2="6" transform="translate(483 156.894)" fill="none" stroke="#8cb44e" stroke-linecap="round" stroke-linejoin="round" stroke-width="2"/>
    <path id="Path_51" data-name="Path 51" d="M516.276,182.638a33.638,33.638,0,1,0-53.457,27.17,5.521,5.521,0,0,0,3.251,1.086h33.137a5.521,5.521,0,0,0,3.251-1.086A33.576,33.576,0,0,0,516.276,182.638Z" transform="translate(0)" fill="none" stroke="#000" stroke-linecap="round" stroke-linejoin="round" stroke-width="2"/>
  </g>
</svg>
