<svg xmlns="http://www.w3.org/2000/svg" width="66" height="66" viewBox="0 0 66 66">
  <g id="Group_8" data-name="Group 8" transform="translate(-252.25 -250.25)">
    <rect id="Rectangle_12" data-name="Rectangle 12" width="28" height="15" rx="2" transform="translate(271.25 251.25)" fill="none" stroke="#000" stroke-linejoin="round" stroke-width="2"/>
    <rect id="Rectangle_13" data-name="Rectangle 13" width="18" height="15" rx="2" transform="translate(276.25 300.25)" fill="none" stroke="#000" stroke-linejoin="round" stroke-width="2"/>
    <rect id="Rectangle_14" data-name="Rectangle 14" width="15" height="16" rx="2" transform="translate(302.25 292.25)" fill="none" stroke="#000" stroke-linejoin="round" stroke-width="2"/>
    <path id="Path_1" data-name="Path 1" d="M285,275h10.32a5.16,5.16,0,0,1,5.16,5.16v5.16" transform="translate(9.28 6.96)" fill="none" stroke="#8cb44e" stroke-linejoin="round" stroke-width="2"/>
    <rect id="Rectangle_15" data-name="Rectangle 15" width="15" height="16" rx="2" transform="translate(268.25 308.25) rotate(180)" fill="none" stroke="#000" stroke-linejoin="round" stroke-width="2"/>
    <path id="Path_2" data-name="Path 2" d="M274.48,275H264.16a5.16,5.16,0,0,0-5.16,5.16v5.16" transform="translate(1.74 6.96)" fill="none" stroke="#8cb44e" stroke-linejoin="round" stroke-width="2"/>
    <line id="Line_9" data-name="Line 9" y2="7" transform="translate(285.25 266.25)" fill="none" stroke="#8cb44e" stroke-linejoin="round" stroke-width="2"/>
    <line id="Line_10" data-name="Line 10" y2="9" transform="translate(285.25 291.25)" fill="none" stroke="#8cb44e" stroke-linejoin="round" stroke-width="2"/>
    <rect id="Rectangle_16" data-name="Rectangle 16" width="12.77" height="12.77" transform="translate(276.22 281.96) rotate(-45)" fill="none" stroke="#8cb44e" stroke-linejoin="round" stroke-width="2"/>
  </g>
</svg>
