<svg xmlns="http://www.w3.org/2000/svg" width="76.804" height="71.263" viewBox="0 0 76.804 71.263">
  <g id="Group_34" data-name="Group 34" transform="translate(-152 -250)">
    <line id="Line_46" data-name="Line 46" y1="8" transform="translate(181 312.263)" fill="none" stroke="#000" stroke-linecap="round" stroke-linejoin="round" stroke-width="2"/>
    <line id="Line_47" data-name="Line 47" x1="31" transform="translate(175 320.263)" fill="none" stroke="#000" stroke-linecap="round" stroke-linejoin="round" stroke-width="2"/>
    <line id="Line_48" data-name="Line 48" y2="8" transform="translate(200 312.263)" fill="none" stroke="#000" stroke-linecap="round" stroke-linejoin="round" stroke-width="2"/>
    <line id="Line_49" data-name="Line 49" x2="75" transform="translate(153 303.263)" fill="none" stroke="#000" stroke-linejoin="round" stroke-width="2"/>
    <path id="Path_20" data-name="Path 20" d="M208.41,259h12.467a6.927,6.927,0,0,1,6.926,6.926v36.017a6.927,6.927,0,0,1-6.926,6.926H159.926A6.927,6.927,0,0,1,153,301.943V265.926A6.927,6.927,0,0,1,159.926,259h12.467" transform="translate(0 3.082)" fill="none" stroke="#000" stroke-linecap="round" stroke-linejoin="round" stroke-width="2"/>
    <ellipse id="Ellipse_2" data-name="Ellipse 2" cx="4.5" cy="4" rx="4.5" ry="4" transform="translate(186 262.263)" fill="none" stroke="#000" stroke-linejoin="round" stroke-width="2"/>
    <line id="Line_50" data-name="Line 50" y2="8" transform="translate(190 276.263)" fill="none" stroke="#8cb44e" stroke-linecap="round" stroke-linejoin="round" stroke-width="2"/>
    <path id="Path_21" data-name="Path 21" d="M194.165,277.623H187V261l9.935,9.935a3.917,3.917,0,0,1,1.147,2.771h0A3.917,3.917,0,0,1,194.165,277.623Z" transform="translate(13.099 3.853)" fill="none" stroke="#8cb44e" stroke-linejoin="round" stroke-width="2"/>
    <path id="Path_22" data-name="Path 22" d="M168.918,277.623h7.165V261l-9.935,9.935A3.917,3.917,0,0,0,165,273.706h0A3.917,3.917,0,0,0,168.918,277.623Z" transform="translate(4.623 3.853)" fill="none" stroke="#8cb44e" stroke-linejoin="round" stroke-width="2"/>
    <path id="Path_23" data-name="Path 23" d="M173,264.853c0-8.312,9.7-13.853,9.7-13.853s9.7,5.541,9.7,13.853v16.623a2.77,2.77,0,0,1-2.771,2.771H175.771A2.77,2.77,0,0,1,173,281.476Z" transform="translate(7.705)" fill="none" stroke="#8cb44e" stroke-linejoin="round" stroke-width="2"/>
    <line id="Line_51" data-name="Line 51" y1="14" transform="translate(197 284.263)" fill="none" stroke="#000" stroke-linecap="round" stroke-linejoin="round" stroke-width="2" stroke-dasharray="0 4 100"/>
    <line id="Line_52" data-name="Line 52" y1="14" transform="translate(183 284.263)" fill="none" stroke="#000" stroke-linecap="round" stroke-linejoin="round" stroke-width="2" stroke-dasharray="0 4 100"/>
    <line id="Line_53" data-name="Line 53" y2="6" transform="translate(190 292.263)" fill="none" stroke="#000" stroke-linecap="round" stroke-linejoin="round" stroke-width="2"/>
    <path id="Path_24" data-name="Path 24" d="M199.312,290.926A6.927,6.927,0,0,0,192.385,284H191" transform="translate(14.64 12.714)" fill="none" stroke="#000" stroke-linejoin="round" stroke-width="2"/>
    <path id="Path_25" data-name="Path 25" d="M193.312,287.312v-1.385A6.927,6.927,0,0,0,186.385,279H185" transform="translate(12.328 10.787)" fill="none" stroke="#000" stroke-linecap="round" stroke-linejoin="round" stroke-width="2"/>
    <path id="Path_26" data-name="Path 26" d="M163,290.926A6.927,6.927,0,0,1,169.926,284h1.385" transform="translate(3.853 12.714)" fill="none" stroke="#000" stroke-linejoin="round" stroke-width="2"/>
    <path id="Path_27" data-name="Path 27" d="M169,287.312v-1.385A6.927,6.927,0,0,1,175.926,279h1.385" transform="translate(6.164 10.787)" fill="none" stroke="#000" stroke-linecap="round" stroke-linejoin="round" stroke-width="2"/>
    <line id="Line_54" data-name="Line 54" transform="translate(161 281.263)" fill="none" stroke="#000" stroke-linecap="round" stroke-linejoin="round" stroke-width="2"/>
    <line id="Line_55" data-name="Line 55" transform="translate(161 287.263)" fill="none" stroke="#000" stroke-linecap="round" stroke-linejoin="round" stroke-width="2"/>
    <line id="Line_56" data-name="Line 56" transform="translate(167 287.263)" fill="none" stroke="#000" stroke-linecap="round" stroke-linejoin="round" stroke-width="2"/>
    <line id="Line_57" data-name="Line 57" transform="translate(161 292.263)" fill="none" stroke="#000" stroke-linecap="round" stroke-linejoin="round" stroke-width="2"/>
    <line id="Line_58" data-name="Line 58" transform="translate(219 281.263)" fill="none" stroke="#000" stroke-linecap="round" stroke-linejoin="round" stroke-width="2"/>
    <line id="Line_59" data-name="Line 59" transform="translate(219 287.263)" fill="none" stroke="#000" stroke-linecap="round" stroke-linejoin="round" stroke-width="2"/>
    <line id="Line_60" data-name="Line 60" transform="translate(214 287.263)" fill="none" stroke="#000" stroke-linecap="round" stroke-linejoin="round" stroke-width="2"/>
    <line id="Line_61" data-name="Line 61" transform="translate(219 292.263)" fill="none" stroke="#000" stroke-linecap="round" stroke-linejoin="round" stroke-width="2"/>
  </g>
</svg>
