<svg xmlns="http://www.w3.org/2000/svg" width="66.195" height="63.056" viewBox="0 0 66.195 63.056">
  <g id="Group_42" data-name="Group 42" transform="translate(-174.496 -38.093)">
    <path id="Path_42" data-name="Path 42" d="M239.36,55.974,203.607,39.093,181.6,45.311c-4.549,1.492-6.1,2.745-6.1,6.1V53.7c0,3.355,1.869,5.325,6.1,7.624l27.843,14.422" fill="none" stroke="#000" stroke-linecap="round" stroke-linejoin="round" stroke-width="2"/>
    <path id="Path_43" data-name="Path 43" d="M175.5,63.747V65.73c0,3.354,1.869,5.325,6.1,7.624l27.843,14.421" fill="none" stroke="#000" stroke-linecap="round" stroke-linejoin="round" stroke-width="2"/>
    <path id="Path_44" data-name="Path 44" d="M175.5,76.048v1.678c0,3.355,1.869,5.325,6.1,7.624l27.843,14.421" fill="none" stroke="#000" stroke-linecap="round" stroke-linejoin="round" stroke-width="2"/>
    <path id="Path_45" data-name="Path 45" d="M239.36,55.974l-25.739,7.4c-4.295,1.221-6.1,2.746-6.1,6.1v2.287a5.15,5.15,0,0,0,.449,2.424,3.185,3.185,0,0,0,3.516,1.821l27.874-8" fill="none" stroke="#000" stroke-linecap="round" stroke-linejoin="round" stroke-width="2"/>
    <path id="Path_46" data-name="Path 46" d="M213.621,75.413c-3.913.941-6.1,2.745-6.1,6.1V83.8a5.153,5.153,0,0,0,.449,2.424,3.186,3.186,0,0,0,3.516,1.821l27.874-8.011" fill="none" stroke="#000" stroke-linecap="round" stroke-linejoin="round" stroke-width="2"/>
    <path id="Path_47" data-name="Path 47" d="M213.621,87.4c-3.913.941-6.1,2.744-6.1,6.1v2.287a5.148,5.148,0,0,0,.449,2.424,3.185,3.185,0,0,0,3.516,1.821l27.874-8.01" fill="none" stroke="#000" stroke-linecap="round" stroke-linejoin="round" stroke-width="2"/>
    <path id="Path_48" data-name="Path 48" d="M235.555,64.847a10.912,10.912,0,0,1-.312-2.6c0-.3.011-.59.035-.88A10.828,10.828,0,0,1,236.7,56.8" fill="none" stroke="#000" stroke-linejoin="round" stroke-width="2"/>
    <path id="Path_49" data-name="Path 49" d="M235.555,76.9a10.92,10.92,0,0,1-.312-2.6c0-.3.011-.589.035-.879a10.828,10.828,0,0,1,1.425-4.569" fill="none" stroke="#000" stroke-linejoin="round" stroke-width="2"/>
    <path id="Path_50" data-name="Path 50" d="M237.126,92.472a10.83,10.83,0,0,1-1.883-6.121c0-.3.011-.589.035-.879A10.819,10.819,0,0,1,236.7,80.9" fill="none" stroke="#000" stroke-linejoin="round" stroke-width="2"/>
    <g id="Group_41" data-name="Group 41">
      <line id="Line_79" data-name="Line 79" x1="12.752" y2="3.602" transform="translate(191.512 45.15)" fill="none" stroke="#8cb44e" stroke-linecap="round" stroke-linejoin="round" stroke-width="2"/>
      <line id="Line_80" data-name="Line 80" x1="12.752" y2="3.603" transform="translate(198.482 48.419)" fill="none" stroke="#8cb44e" stroke-linecap="round" stroke-linejoin="round" stroke-width="2"/>
    </g>
  </g>
</svg>
