<svg xmlns="http://www.w3.org/2000/svg" width="66" height="51.778" viewBox="0 0 66 51.778">
  <g id="Group_27" data-name="Group 27" transform="translate(-446 -358)">
    <line id="Line_24" data-name="Line 24" x2="52" transform="translate(447 368.889)" fill="none" stroke="#000" stroke-linecap="round" stroke-linejoin="round" stroke-width="2"/>
    <line id="Line_25" data-name="Line 25" transform="translate(454 363.889)" fill="none" stroke="#000" stroke-linecap="round" stroke-linejoin="round" stroke-width="2"/>
    <line id="Line_26" data-name="Line 26" transform="translate(459 363.889)" fill="none" stroke="#000" stroke-linecap="round" stroke-linejoin="round" stroke-width="2"/>
    <line id="Line_27" data-name="Line 27" transform="translate(464 363.889)" fill="none" stroke="#000" stroke-linecap="round" stroke-linejoin="round" stroke-width="2"/>
    <path id="Path_11" data-name="Path 11" d="M506.26,389.815v13.037a5.927,5.927,0,0,1-5.926,5.926H452.926A5.927,5.927,0,0,1,447,402.852V364.926A5.927,5.927,0,0,1,452.926,359h47.408a5.927,5.927,0,0,1,5.926,5.926v1.185" transform="translate(0)" fill="none" stroke="#000" stroke-linecap="round" stroke-linejoin="round" stroke-width="2"/>
    <rect id="Rectangle_18" data-name="Rectangle 18" width="17" height="16" rx="2" transform="translate(454 375.889)" fill="none" stroke="#8cb44e" stroke-linecap="round" stroke-linejoin="round" stroke-width="2"/>
    <path id="Path_12" data-name="Path 12" d="M473,387.222V375.37a2.37,2.37,0,0,1,2.37-2.37h11.852" transform="translate(4.815 2.593)" fill="none" stroke="#000" stroke-linecap="round" stroke-linejoin="round" stroke-width="2"/>
    <line id="Line_28" data-name="Line 28" x2="17" transform="translate(454 396.889)" fill="none" stroke="#000" stroke-linecap="round" stroke-linejoin="round" stroke-width="2"/>
    <line id="Line_29" data-name="Line 29" x1="13.274" transform="translate(454.111 401.667)" fill="none" stroke="#000" stroke-linecap="round" stroke-linejoin="round" stroke-width="2" stroke-dasharray="0 4 100"/>
    <path id="Path_13" data-name="Path 13" d="M504.712,377.584l-24.6,24.6H473v-7.111l24.6-24.6a5.028,5.028,0,0,1,7.111,0h0A5.028,5.028,0,0,1,504.712,377.584Z" transform="translate(4.815 1.852)" fill="none" stroke="#8cb44e" stroke-linejoin="round" stroke-width="2"/>
    <line id="Line_30" data-name="Line 30" x1="7" y1="7" transform="translate(499 375.889)" fill="none" stroke="#8cb44e" stroke-linecap="round" stroke-linejoin="round" stroke-width="2"/>
    <line id="Line_31" data-name="Line 31" x1="15.204" y2="15.204" transform="translate(454.805 376.287)" fill="none" stroke="#8cb44e" stroke-linecap="round" stroke-linejoin="round" stroke-width="2"/>
  </g>
</svg>
