<svg id="Group_46" data-name="Group 46" xmlns="http://www.w3.org/2000/svg" xmlns:xlink="http://www.w3.org/1999/xlink" width="23.278" height="23.273" viewBox="0 0 23.278 23.273">
  <defs>
    <clipPath id="clip-path">
      <rect id="Rectangle_4482" data-name="Rectangle 4482" width="23.278" height="23.273" fill="#81b63a"/>
    </clipPath>
  </defs>
  <g id="Group_9057" data-name="Group 9057" clip-path="url(#clip-path)">
    <path id="Path_3727" data-name="Path 3727" d="M20.726,0H2.558A2.564,2.564,0,0,0,0,2.552V20.72a2.564,2.564,0,0,0,2.558,2.552H20.726a2.559,2.559,0,0,0,2.552-2.552V2.552A2.559,2.559,0,0,0,20.726,0M7.122,18.927H3.853V9.237H7.122ZM6.761,7.564a1.709,1.709,0,0,1-1.279.557,1.684,1.684,0,0,1-1.268-.568,1.879,1.879,0,0,1-.53-1.339,1.84,1.84,0,0,1,.525-1.323,1.725,1.725,0,0,1,1.273-.547,1.7,1.7,0,0,1,1.29.541,1.813,1.813,0,0,1,.519,1.328,1.877,1.877,0,0,1-.53,1.35M19.6,18.927H16.326V13.735a3.059,3.059,0,0,0-.366-1.689,1.311,1.311,0,0,0-1.159-.53,1.611,1.611,0,0,0-1.492.787,5.3,5.3,0,0,0-.465,2.552v4.072H9.625V9.237h3V11.2a4.674,4.674,0,0,1,1.5-1.733,3.7,3.7,0,0,1,2.044-.547,4.081,4.081,0,0,1,1.6.3,2.809,2.809,0,0,1,1.142.869,3,3,0,0,1,.525,1.192A10.381,10.381,0,0,1,19.6,13.38Z" fill="#81b63a" fill-rule="evenodd"/>
  </g>
</svg>
