<?xml version="1.0" encoding="utf-8"?>
<!-- Generator: Adobe Illustrator 26.2.1, SVG Export Plug-In . SVG Version: 6.00 Build 0)  -->
<svg version="1.1" id="Layer_1" xmlns="http://www.w3.org/2000/svg" xmlns:xlink="http://www.w3.org/1999/xlink" x="0px" y="0px"
	 viewBox="0 0 24 24" style="enable-background:new 0 0 24 24;" xml:space="preserve">
<style type="text/css">
	.st0{fill:#81B63A;}
</style>
<path class="st0" d="M12,0C5.4,0,0,5.4,0,12s5.4,12,12,12s12-5.4,12-12S18.6,0,12,0z M17.8,11.4c-1.3,2.8-4.5,6.6-6.5,6.6
	c-2,0-2.2-4.2-3.3-7C7.5,9.7,7.2,10,6.2,10.7L5.6,9.9C7,8.6,8.5,7.1,9.4,7.1c1-0.1,1.6,0.6,1.8,2.1c0.3,1.9,0.7,4.9,1.5,4.9
	c0.6,0,2-2.4,2.1-3.2c0.1-1.2-0.9-1.3-1.8-0.9C14.4,5.2,20.3,6.1,17.8,11.4z"/>
</svg>
